<?xml version="1.0" encoding="UTF-8"?>
<svg width="200" height="200" viewBox="0 0 200 200" fill="none" xmlns="http://www.w3.org/2000/svg">
  <rect width="200" height="200" fill="#1E40AF"/>
  <path d="M150 100C150 128.719 126.719 152 98 152C69.2812 152 46 128.719 46 100C46 71.2812 69.2812 48 98 48C126.719 48 150 71.2812 150 100ZM98 58C74.1953 58 56 76.1953 56 100C56 123.805 74.1953 142 98 142C111.328 142 123.242 135.852 130.742 125.781L150 145L158.75 136.25L140 117.5C146.25 107.422 150 94.25 150 80C150 56.1953 131.805 38 108 38C84.1953 38 66 56.1953 66 80H76C76 61.4375 89.4375 48 108 48C126.562 48 140 61.4375 140 80C140 92.2812 133.062 103.188 122.5 108.75L98 58Z" fill="white"/>
</svg>
